<?xml version="1.0" encoding="UTF-8"?>
<svg xmlns="http://www.w3.org/2000/svg" viewBox="0 0 32 32" width="32" height="32">
  <defs>
    <linearGradient id="pride" x1="0" y1="0" x2="0" y2="1">
      <stop offset="0%" stop-color="#ff1f6d"/>
      <stop offset="20%" stop-color="#ff8a00"/>
      <stop offset="40%" stop-color="#ffe600"/>
      <stop offset="60%" stop-color="#22e08a"/>
      <stop offset="80%" stop-color="#2bb7ff"/>
      <stop offset="100%" stop-color="#a347ff"/>
    </linearGradient>
  </defs>
  <rect width="32" height="32" rx="6" fill="url(#pride)"/>
  <path d="M7 24 C 7 17, 11 14, 15 14 L 17 11 C 18 9, 20 8.5, 21 10.5 L 21.5 12.5 C 22.5 12.2, 23.5 12.6, 24 13.6 L 24.3 16 C 26 16.3, 27 17.6, 27 19.5 L 27 24 L 24.5 24 L 24 21 L 22 21 L 21.6 24 L 19.4 24 L 19 20.5 C 16 21, 13 21, 11.5 20.7 L 11 24 L 9 24 L 8.7 21 L 7.5 21 Z" fill="#0b0014"/>
  <path d="M21 10.5 L 22.6 8.5 L 23.2 10.5 Z" fill="#0b0014"/>
  <circle cx="22.8" cy="12.4" r="0.5" fill="#fff"/>
</svg>
