<?xml version="1.0" encoding="UTF-8"?>
<svg xmlns="http://www.w3.org/2000/svg" xmlns:xlink="http://www.w3.org/1999/xlink" viewBox="0 0 1200 630" width="1200" height="630">
  <defs>
    <linearGradient id="rainbow" x1="0" y1="0" x2="1" y2="1">
      <stop offset="0%" stop-color="#ff1f6d"/>
      <stop offset="20%" stop-color="#ff8a00"/>
      <stop offset="40%" stop-color="#ffe600"/>
      <stop offset="60%" stop-color="#22e08a"/>
      <stop offset="80%" stop-color="#2bb7ff"/>
      <stop offset="100%" stop-color="#a347ff"/>
    </linearGradient>
    <linearGradient id="trans" x1="0" y1="0" x2="0" y2="1">
      <stop offset="0%" stop-color="#5bcefa"/>
      <stop offset="33%" stop-color="#f5a9b8"/>
      <stop offset="66%" stop-color="#ffffff"/>
      <stop offset="100%" stop-color="#f5a9b8"/>
    </linearGradient>
    <radialGradient id="spot" cx="0.5" cy="0.5" r="0.6">
      <stop offset="0%" stop-color="#fff" stop-opacity="0.35"/>
      <stop offset="100%" stop-color="#fff" stop-opacity="0"/>
    </radialGradient>
    <pattern id="grid" width="40" height="40" patternUnits="userSpaceOnUse" patternTransform="rotate(8)">
      <path d="M0 0H40M0 0V40" stroke="rgba(255,255,255,0.08)" stroke-width="1"/>
    </pattern>
    <filter id="noise">
      <feTurbulence type="fractalNoise" baseFrequency="0.9" numOctaves="2"/>
      <feColorMatrix values="0 0 0 0 1   0 0 0 0 1   0 0 0 0 1   0 0 0 0.08 0"/>
    </filter>
  </defs>

  <!-- base -->
  <rect width="1200" height="630" fill="#0b0014"/>
  <rect width="1200" height="630" fill="url(#rainbow)" opacity="0.95"/>
  <rect width="1200" height="630" fill="url(#grid)"/>
  <rect width="1200" height="630" fill="url(#spot)"/>

  <!-- diagonal ribbon -->
  <g transform="translate(600 315) rotate(-8)">
    <rect x="-700" y="-60" width="1400" height="120" fill="#0b0014" opacity="0.85"/>
    <rect x="-700" y="-58" width="1400" height="6" fill="url(#rainbow)"/>
    <rect x="-700" y="52" width="1400" height="6" fill="url(#rainbow)"/>
  </g>

  <!-- pony silhouette / focal disc -->
  <g transform="translate(940 320)">
    <circle r="200" fill="#0b0014" opacity="0.7"/>
    <circle r="200" fill="none" stroke="url(#trans)" stroke-width="6"/>
    <!-- stylized horse silhouette -->
    <g transform="translate(-110 -120) scale(1.6)" fill="#fff">
      <path d="M30 130 C 30 90, 50 70, 80 70 L 95 55 C 100 45, 110 40, 118 50 L 122 60 C 128 58, 134 60, 138 66 L 140 80 C 150 82, 158 90, 160 102 L 162 130 L 150 130 L 148 110 L 134 110 L 132 130 L 120 130 L 118 108 C 100 110, 80 110, 70 108 L 68 130 L 56 130 L 54 112 L 44 112 L 42 130 Z"/>
      <path d="M118 50 L 126 38 L 130 50 Z"/>
      <circle cx="128" cy="62" r="2.2" fill="#0b0014"/>
    </g>
  </g>

  <!-- stickers / chaos -->
  <g font-family="Helvetica, Arial, sans-serif" font-weight="900">
    <g transform="translate(110 110) rotate(-12)">
      <rect x="-70" y="-22" width="140" height="44" fill="#fff"/>
      <text x="0" y="8" text-anchor="middle" font-size="22" fill="#0b0014">FREE 4 ALL</text>
    </g>
    <g transform="translate(150 540) rotate(6)">
      <rect x="-90" y="-22" width="180" height="44" fill="#0b0014"/>
      <text x="0" y="8" text-anchor="middle" font-size="20" fill="#ffe600">// SLIGHTLY WRONG</text>
    </g>
    <g transform="translate(1050 90) rotate(10)">
      <circle r="48" fill="#ff1f6d"/>
      <text y="6" text-anchor="middle" font-size="22" fill="#fff">★ NEW ★</text>
    </g>
  </g>

  <!-- main wordmark -->
  <g font-family="Impact, 'Arial Black', Helvetica, sans-serif">
    <text x="80" y="320" font-size="180" font-weight="900" fill="#fff" letter-spacing="-4">PONY</text>
    <text x="80" y="470" font-size="180" font-weight="900" fill="#0b0014" letter-spacing="-4">FORGE</text>
    <!-- offset chromatic glitch on PONY -->
    <text x="84" y="320" font-size="180" font-weight="900" fill="#ff1f6d" letter-spacing="-4" opacity="0.55">PONY</text>
    <text x="76" y="320" font-size="180" font-weight="900" fill="#2bb7ff" letter-spacing="-4" opacity="0.55">PONY</text>
    <text x="80" y="320" font-size="180" font-weight="900" fill="#fff" letter-spacing="-4">PONY</text>
  </g>

  <!-- tagline -->
  <g font-family="Helvetica, Arial, sans-serif">
    <text x="80" y="540" font-size="28" font-weight="700" fill="#0b0014">CHAOTIC · QUEER · HYPERREAL · SLIGHTLY WRONG</text>
    <text x="80" y="585" font-size="22" font-weight="500" fill="#0b0014" opacity="0.8">ponyforge.com — drag, dress, scream-sync</text>
  </g>

  <!-- noise overlay -->
  <rect width="1200" height="630" filter="url(#noise)" opacity="0.6"/>
</svg>
